<svg viewBox="0 0 32 32" xmlns="http://www.w3.org/2000/svg">
  <path style="font-variation-settings:normal;opacity:1;vector-effect:none;fill:#28170b;fill-opacity:1;stroke:none;stroke-width:1.65004;stroke-linecap:butt;stroke-linejoin:miter;stroke-miterlimit:4;stroke-dasharray:none;stroke-dashoffset:0;stroke-opacity:1;-inkscape-stroke:none;stop-color:#000;stop-opacity:1" d="m8.09 10.98-.95 2.8-.88 4.44S5.26 19.8 5 20.9c-.25 1.1-.06 1.76-.06 1.76l.16-.63.56-1.6s.5 1.1.35 1.7c-.16.6-.94 2.98-.94 2.98l-.98 1.7 1.23-.69s-.66 2.2-1.04 2.7c-.38.51-.88 1.8-.88 1.8l1.29-1.23.38 1.17.63-1.1s.97-.5 1.03.47c.07.97.63-.19.63-.19s.41-.13.67.6c.25.72.47.66.47.66s-.13-1.51.12-1.42c.25.1 1.01 1.3 1.01 1.3s.19-.98.38-.98.56 1.35.4 1.48c-.15.12.92-1.2.92-1.2s.53.57.5 1c-.03.45.38-1 .38-1s1.39 1.07 1.3 1.35c-.1.29.53-.94.53-.94l1.25 1.04s-.22.91 0 0c.23-.91.76-1.3.76-1.3s.54 1.08.4 1.3c-.12.22.83-.7.83-.7l.97-.28s.38.79.63.98c.25.19.7-1.07.7-1.07s.69-.41.88-.13c.18.29.69.85.69.85l.85.2s-.54-.92-.41-1.24c.12-.31.97-1.2.97-1.2s.2 2.02-.03 2.4c-.22.38 1.59-1.22 1.59-1.22l.54.4 1.56.6-.7-1.29.38-1.21 1.32 2.22-.52-3.4s.31-.68.56.05c.26.72-.49-5.48-.49-5.48L25.5 16.9l-1.26-5.76z"/>
  <path style="font-variation-settings:normal;display:inline;vector-effect:none;fill:#000;fill-opacity:1;stroke:none;stroke-width:1.67094;stroke-linecap:butt;stroke-linejoin:miter;stroke-miterlimit:4;stroke-dasharray:none;stroke-dashoffset:0;stroke-opacity:1;-inkscape-stroke:none;stop-color:#000" d="M9.35 24.84s-4.53 2.04-5.56 3.44c-1.03 1.4-1.35 3.94-1.35 3.94l27.02-.13s.27-3.35-1.89-4.76c-2.15-1.4-5.88-3.07-5.88-3.07z"/>
  <g aria-label="VBW." style="font-size:17.7409px;line-height:1.25;stroke-width:.443523">
    <ellipse style="fill:#e9c6af;fill-rule:evenodd;stroke-width:.310886" cx="16.06" cy="16.67" rx="8.97" ry="10.01"/>
    <ellipse style="fill:#000;fill-rule:evenodd;stroke-width:.517795" cx="13.69" cy="14.02" rx=".6" ry="1.38"/>
    <ellipse style="font-size:17.7409px;line-height:1.25;fill:#000;fill-rule:evenodd;stroke-width:.517795" cx="18.13" cy="13.96" rx=".6" ry="1.38"/>
    <path style="font-variation-settings:normal;opacity:1;fill:#fff;fill-opacity:1;stroke:#f50c17;stroke-width:.25;stroke-linecap:butt;stroke-linejoin:miter;stroke-miterlimit:4;stroke-dasharray:none;stroke-dashoffset:0;stroke-opacity:1;stop-color:#000;stop-opacity:1" d="m8.12 10.89 15.99.19s.19-6.3-1.9-7.62c-2.07-1.32-11.26-.44-11.26-.44s-3.27.76-2.83 7.87z"/>
    <path style="font-variation-settings:normal;opacity:1;fill:#f50c17;fill-opacity:1;stroke:#f80000;stroke-width:.252362;stroke-linecap:butt;stroke-linejoin:miter;stroke-miterlimit:4;stroke-dasharray:none;stroke-dashoffset:0;stroke-opacity:1;stop-color:#000;stop-opacity:1" d="M8.06 10.7c6.74-2.45 16.05.19 16.05.19Z"/>
    <text xml:space="preserve" style="font-style:normal;font-weight:400;font-size:3.87881px;line-height:1.25;font-family:sans-serif;fill:red;fill-opacity:1;stroke:none;stroke-width:.0430082" x="11.41" y="8.07"><tspan x="11.41" y="8.07" style="fill:red;stroke-width:.0430082">Beer</tspan></text>
    <ellipse style="fill:#e9c6af;fill-opacity:1;fill-rule:evenodd;stroke:none;stroke-width:.15;stroke-miterlimit:4;stroke-dasharray:none;stroke-opacity:1" cx="6.53" cy="15.34" rx="1.27" ry="2.03"/>
    <ellipse style="font-size:17.7409px;line-height:1.25;fill:#e9c6af;fill-opacity:1;fill-rule:evenodd;stroke:none;stroke-width:.15;stroke-miterlimit:4;stroke-dasharray:none;stroke-opacity:1" cx="25.71" cy="14.95" rx="1.27" ry="2.03"/>
  </g>
  <path style="font-size:17.7409px;line-height:1.25;font-variation-settings:normal;fill:#2b1100;fill-opacity:1;stroke:none;stroke-width:.172181;stroke-linecap:butt;stroke-linejoin:miter;stroke-miterlimit:4;stroke-dasharray:none;stroke-dashoffset:0;stroke-opacity:1;stop-color:#000" d="M15.21 17.17s-3.81-.18-4.95.95a10.71 10.71 0 0 0-2.29 4.06c-.1.66-.14 2.53-.14 2.53l.71-1.43s-1.14 4.65-.78 3.95c.36-.7.93 1.76.93 1.76l.96.22s.6 2.56.78 2.2c.18-.37.72.1.72.1l1.07-.44.57 1.17.64-1.42.75 1.13.71-1.28.32 1.28.54-1.5 1.46 1.24.75-1.5.07 1.58s-.03.22.54-.37c.57-.58.6-1.2.6-1.2l.82.47.5-2.09s.79.26.86.8c.07.56.46-2.3.46-2.3s.47-.07.54.66c.07.73.85-2.56 1-2.56.14 0-.25-2.12-.25-2.12l.57.77s.18-1.42-.07-2.7c-.61-3.12-3.36-3.6-3.36-3.6z"/>
  <ellipse style="font-size:17.7409px;line-height:1.25;fill:#deaa87;fill-opacity:1;fill-rule:evenodd;stroke:none;stroke-width:.106995;stroke-miterlimit:4;stroke-dasharray:none;stroke-opacity:1" cx="15.97" cy="17.13" rx="1.36" ry="1.68"/>
</svg>
