<svg viewBox="0 0 32 32" xmlns="http://www.w3.org/2000/svg">
  <path style="font-variation-settings:normal;display:inline;vector-effect:none;fill:#00002c;fill-opacity:1;stroke:none;stroke-width:1.65004;stroke-linecap:butt;stroke-linejoin:miter;stroke-miterlimit:4;stroke-dasharray:none;stroke-dashoffset:0;stroke-opacity:1;-inkscape-stroke:none;stop-color:#000" d="M9.52 24.88s-4.5 2-5.52 3.38c-1.02 1.38-1.33 3.87-1.33 3.87L29.46 32s.26-3.3-1.87-4.67c-2.14-1.38-5.83-3.03-5.83-3.03z"/>
  <circle style="opacity:1;fill:#d40000;fill-opacity:1;fill-rule:evenodd;stroke:none;stroke-width:.25;stroke-miterlimit:4;stroke-dasharray:none;stroke-opacity:1" cx="10.55" cy="30.8" r=".98"/>
  <circle style="fill:#d40000;fill-opacity:1;fill-rule:evenodd;stroke:none;stroke-width:.25;stroke-miterlimit:4;stroke-dasharray:none;stroke-opacity:1" cx="4.72" cy="29.42" r=".98"/>
  <circle style="fill:#d40000;fill-opacity:1;fill-rule:evenodd;stroke:none;stroke-width:.25;stroke-miterlimit:4;stroke-dasharray:none;stroke-opacity:1" cx="16.42" cy="30.66" r=".98"/>
  <circle style="fill:#d40000;fill-opacity:1;fill-rule:evenodd;stroke:none;stroke-width:.25;stroke-miterlimit:4;stroke-dasharray:none;stroke-opacity:1" cx="13.49" cy="27.5" r=".98"/>
  <circle style="fill:#d40000;fill-opacity:1;fill-rule:evenodd;stroke:none;stroke-width:.25;stroke-miterlimit:4;stroke-dasharray:none;stroke-opacity:1" cx="27.37" cy="29.69" r=".98"/>
  <circle style="fill:#d40000;fill-opacity:1;fill-rule:evenodd;stroke:none;stroke-width:.25;stroke-miterlimit:4;stroke-dasharray:none;stroke-opacity:1" cx="22.12" cy="30.58" r=".98"/>
  <circle style="fill:#d40000;fill-opacity:1;fill-rule:evenodd;stroke:none;stroke-width:.25;stroke-miterlimit:4;stroke-dasharray:none;stroke-opacity:1" cx="23.1" cy="27.46" r=".98"/>
  <circle style="fill:#d40000;fill-opacity:1;fill-rule:evenodd;stroke:none;stroke-width:.25;stroke-miterlimit:4;stroke-dasharray:none;stroke-opacity:1" cx="8.37" cy="27.33" r=".98"/>
  <circle style="fill:#d40000;fill-opacity:1;fill-rule:evenodd;stroke:none;stroke-width:.25;stroke-miterlimit:4;stroke-dasharray:none;stroke-opacity:1" cx="19.18" cy="27.1" r=".98"/>
  <g aria-label="VBW." style="font-size:17.7409px;line-height:1.25;stroke-width:.443523" transform="translate(-.32 .79)">
    <ellipse style="fill:#deaa87;fill-rule:evenodd;stroke-width:.310886" cx="16.06" cy="16.67" rx="8.97" ry="10.01"/>
    <ellipse style="fill:#000;fill-rule:evenodd;stroke-width:.517795" cx="13.69" cy="14.02" rx=".6" ry="1.38"/>
    <ellipse style="font-size:17.7409px;line-height:1.25;fill:#000;fill-rule:evenodd;stroke-width:.517795" cx="18.13" cy="13.96" rx=".6" ry="1.38"/>
    <ellipse style="fill:#d38d5f;fill-opacity:1;fill-rule:evenodd;stroke:none;stroke-width:.0948432;stroke-miterlimit:4;stroke-dasharray:none;stroke-opacity:1" cx="15.96" cy="17.2" rx="1.2" ry="1.5"/>
    <ellipse style="fill:#deaa87;fill-opacity:1;fill-rule:evenodd;stroke:none;stroke-width:.15;stroke-miterlimit:4;stroke-dasharray:none;stroke-opacity:1" cx="6.53" cy="15.34" rx="1.27" ry="2.03"/>
    <ellipse style="font-size:17.7409px;line-height:1.25;fill:#deaa87;fill-opacity:1;fill-rule:evenodd;stroke:none;stroke-width:.15;stroke-miterlimit:4;stroke-dasharray:none;stroke-opacity:1" cx="25.71" cy="14.95" rx="1.27" ry="2.03"/>
  </g>
  <g style="display:inline">
    <circle style="opacity:1;fill:#faa;fill-opacity:.66857141;fill-rule:evenodd;stroke:none;stroke-width:.25;stroke-miterlimit:4;stroke-dasharray:none;stroke-opacity:1" cx="10.67" cy="20.61" r="2.14"/>
    <circle style="display:inline;fill:#faa;fill-opacity:.66857141;fill-rule:evenodd;stroke:none;stroke-width:.25;stroke-miterlimit:4;stroke-dasharray:none;stroke-opacity:1" cx="20.58" cy="20.61" r="2.14"/>
    <path style="font-variation-settings:normal;opacity:1;vector-effect:none;fill:#000;fill-opacity:1;stroke:none;stroke-width:1.65004;stroke-linecap:butt;stroke-linejoin:miter;stroke-miterlimit:4;stroke-dasharray:none;stroke-dashoffset:0;stroke-opacity:1;-inkscape-stroke:none;stop-color:#000;stop-opacity:1" d="M6.5 12.6s-.58 8.18-.27 10c.31 1.83 2.67 6.6 2.67 6.6l1.2 1.46-.22-1.5.85 1.77-.05-2.58.71 2.5-.04-4.6s-3.92-4.75-3.78-7.33c.13-2.59 1.46-6.64 2.35-7.26.9-.62-2.3.36-1.46.13.84-.22 2.5.72 2 .23-.8-.8-1.65.44-1.65.44l1.6.27 2.54-1.02.58-.54s.31-.22.22.09-.89.76-.89.76.98-.1 1.25-.23.98-.84.84-.53c-.13.31-.62.67-.62.67s.98.09 1.07 0c.09-.1.8-.63.8-.63s.93-.04.36.27c-.58.31-.76.45-.76.45s1.47-.05 1.78-.18c.31-.13.53-.18.89-.36s3.03-1.07 3.03-1.07 2.58 3.3 2.58 4.05c0 .76-.1 5.7-.98 7.66-.9 1.96-1.56 2.27-1.83 4.14-.26 1.87-.89 2.8-.89 2.8s1.2-.58 1.43-.98c.22-.4.31-1.15.31-1.15s-.04 1.6-.31 1.87c-.27.26 1.38-.45 1.38-.45l.62-1.96s-.22 1.92-.36 2.36c-.13.45 1.07-.62 1.07-.62l1.07-8.41s-.22-4.81-.76-6.15c-.53-1.33-.8-5.43-3.2-7.25 0 0-1.7-1.02-3.34-1.11-1.64-.1-6.29-.6-7.6 0-1 .44-2.23 1.11-2.9 1.78-.4.4-1.07 3.34-1.07 3.34Z"/>
  </g>
</svg>
