<svg viewBox="0 0 32 32" xmlns="http://www.w3.org/2000/svg">
  <path style="font-variation-settings:normal;display:inline;vector-effect:none;fill:#ff2a2a;fill-opacity:1;stroke:none;stroke-width:1.65004;stroke-linecap:butt;stroke-linejoin:miter;stroke-miterlimit:4;stroke-dasharray:none;stroke-dashoffset:0;stroke-opacity:1;-inkscape-stroke:none;stop-color:#000" d="M9.7 24.97s-4.5 2-5.52 3.38c-1.03 1.38-1.34 3.87-1.34 3.87l26.8-.13s.26-3.3-1.87-4.67c-2.14-1.38-5.83-3.03-5.83-3.03z"/>
  <g aria-label="VBW." style="font-size:17.7409px;line-height:1.25;stroke-width:.443523" transform="translate(-.32 .79)">
    <ellipse style="fill:#e9c6af;fill-rule:evenodd;stroke-width:.310886" cx="16.06" cy="16.67" rx="8.97" ry="10.01"/>
    <ellipse style="fill:#000;fill-rule:evenodd;stroke-width:.517795" cx="13.69" cy="14.02" rx=".6" ry="1.38"/>
    <ellipse style="font-size:17.7409px;line-height:1.25;fill:#000;fill-rule:evenodd;stroke-width:.517795" cx="18.13" cy="13.96" rx=".6" ry="1.38"/>
    <ellipse style="fill:#deaa87;fill-opacity:1;fill-rule:evenodd;stroke:none;stroke-width:.0948432;stroke-miterlimit:4;stroke-dasharray:none;stroke-opacity:1" cx="15.96" cy="17.2" rx="1.2" ry="1.5"/>
    <ellipse style="fill:#e9c6af;fill-opacity:1;fill-rule:evenodd;stroke:none;stroke-width:.15;stroke-miterlimit:4;stroke-dasharray:none;stroke-opacity:1" cx="6.53" cy="15.34" rx="1.27" ry="2.03"/>
    <ellipse style="font-size:17.7409px;line-height:1.25;fill:#e9c6af;fill-opacity:1;fill-rule:evenodd;stroke:none;stroke-width:.15;stroke-miterlimit:4;stroke-dasharray:none;stroke-opacity:1" cx="25.71" cy="14.95" rx="1.27" ry="2.03"/>
    <ellipse style="fill:#fff;fill-opacity:.425714;fill-rule:evenodd;stroke:#000;stroke-width:.439649;stroke-miterlimit:4;stroke-dasharray:none;stroke-opacity:1" cx="12.86" cy="13.86" rx="2.31" ry="2.34"/>
    <ellipse style="font-size:17.7409px;line-height:1.25;fill:#fff;fill-opacity:.425714;fill-rule:evenodd;stroke:#000;stroke-width:.439649;stroke-miterlimit:4;stroke-dasharray:none;stroke-opacity:1" cx="19" cy="13.84" rx="2.31" ry="2.34"/>
    <path style="font-variation-settings:normal;opacity:1;fill:none;fill-opacity:1;stroke:#000;stroke-width:.6;stroke-linecap:butt;stroke-linejoin:miter;stroke-miterlimit:4;stroke-dasharray:none;stroke-dashoffset:0;stroke-opacity:1;stop-color:#000;stop-opacity:1" d="M15.09 13.97h1.69"/>
    <path style="font-variation-settings:normal;opacity:1;fill:none;fill-opacity:1;stroke:#000;stroke-width:.3;stroke-linecap:butt;stroke-linejoin:miter;stroke-miterlimit:4;stroke-dasharray:none;stroke-dashoffset:0;stroke-opacity:1;stop-color:#000;stop-opacity:1" d="m7.39 13.7 1.29-1.06M10.37 13.7 8.5 12.6M24.66 13.66l-1.52-1.73M21.36 13.08l1.87-1.06"/>
  </g>
  <g style="display:inline">
    <ellipse style="opacity:1;fill:#520;fill-opacity:1;fill-rule:evenodd;stroke:none;stroke-width:.171643;stroke-miterlimit:4;stroke-dasharray:none;stroke-opacity:1" cx="17.84" cy="5.9" rx="2.85" ry="2.63" transform="matrix(.9995 -.03189 .01615 .99987 0 0)"/>
    <path style="font-variation-settings:normal;opacity:1;vector-effect:none;fill:none;fill-opacity:1;stroke:#520;stroke-width:.2;stroke-linecap:butt;stroke-linejoin:miter;stroke-miterlimit:4;stroke-dasharray:none;stroke-dashoffset:0;stroke-opacity:1;-inkscape-stroke:none;stop-color:#000;stop-opacity:1" d="M19.97 5.77c.16-.02.33.03.5 0 .11-.02.48-.09.57-.13.03-.01-.17-.14-.09-.22.02-.02.07.02.1 0 .01-.02-.02-.07 0-.1.08-.18-.01.05.08-.04s.22-.53.36-.53"/>
    <path style="font-variation-settings:normal;opacity:1;fill:#784421;fill-opacity:1;stroke:none;stroke-width:.25;stroke-linecap:butt;stroke-linejoin:miter;stroke-miterlimit:4;stroke-dasharray:none;stroke-dashoffset:0;stroke-opacity:1;stop-color:#000;stop-opacity:1" d="M6.98 14.99s-.9-2.05-.9-3.34c0-1.3 2.72-4.54 2.72-4.54s2.94-2.76 6.06-2.63c3.11.14 6.72.71 7.83 2.05 1.11 1.33 2.05 1.73 2 4.32-.04 2.58 0 8.14 0 8.14s-1.24 4.9-1.16 5.6c.1.72-.8-.66-.89-1.2-.08-.53 1.3-6 1.3-6l-.36-3.78s-2.9-2.63-3.6-2.8c-.72-.19-7.13.44-8.64 1.46a12.58 12.58 0 0 1-2.23 1.3s-.22.17-.53.21c-.31.05.62-.66 1.3-1.51.66-.85 2.08-1.29 2.26-2.05.49-.13-1.2.98-1.2.98s-1.25.67-2.23 2.1c-.87 1.26-1.78 4.67-1.64 5.42.13.76 1.02 5.12 1.02 5.12l.76 2.63s-.9-.27-1.12-1.43c-.22-1.15-1.5-5.38-1.38-5.92.14-.53.67-3.82.63-4.13Z"/>
    <path style="font-variation-settings:normal;opacity:1;vector-effect:none;fill:#9bee96;fill-opacity:1;stroke:none;stroke-width:1.65004;stroke-linecap:butt;stroke-linejoin:miter;stroke-miterlimit:4;stroke-dasharray:none;stroke-dashoffset:0;stroke-opacity:1;-inkscape-stroke:none;stop-color:#000;stop-opacity:1" d="M15.25 4.43s1.1-.47 2.57-.22c1.47.25 2.74.88 2.74.88l.26.37z"/>
    <circle style="opacity:1;fill:#faa;fill-opacity:.388571;fill-rule:evenodd;stroke:none;stroke-width:.25;stroke-miterlimit:4;stroke-dasharray:none;stroke-opacity:1" cx="10.67" cy="20.61" r="2.14"/>
    <circle style="display:inline;fill:#faa;fill-opacity:.388571;fill-rule:evenodd;stroke:none;stroke-width:.25;stroke-miterlimit:4;stroke-dasharray:none;stroke-opacity:1" cx="20.58" cy="20.61" r="2.14"/>
  </g>
</svg>
